<svg xmlns="http://www.w3.org/2000/svg" xmlns:xlink="http://www.w3.org/1999/xlink" width="655" height="516" fill="none" xmlns:v="https://vecta.io/nano"><style><![CDATA[.B{fill:#37474f}.C{fill:#263238}.D{fill:#ffc727}.E{fill:#2e353a}.F{opacity:.1}.G{fill:#000}.H{fill:#fff}.I{fill:#ffbe9d}.J{fill:#83ad26}.K{fill:#94c52d}.L{fill:#c7c7c7}.M{fill:#df710b}.N{stroke-linejoin:round}.O{stroke-width:.278}]]></style><path d="M320.787 431.442c-152.273 0-275.714-6.011-275.714-13.426s123.441-13.426 275.714-13.426S596.5 410.601 596.5 418.016s-123.441 13.426-275.713 13.426z" fill="#d4d4d4"/><path d="M593.756 130.781H460.582s13.209-36.059 33.523-36.059 26.696 24.884 26.696 24.884 13.711-13.515 24.969-13.515 21.053 17.863 21.053 17.863 15.898-9.6 26.933 6.827zM467.455 65.025h-73.767s16.517-23.884 29.467-23.884 16.831 15.923 16.831 15.923 9.168-7.433 17.658-6.095 9.811 14.056 9.811 14.056zm-266.192 4.691h-97.057s16.666-31.846 34.687-32.308 27.601 24.099 27.601 24.099 28.212-22.613 34.769 8.209zm138.42 46.541h-65.525s11.265-21.473 23.471-21.787 18.632 16.254 18.632 16.254 18.995-15.296 23.422 5.533z" class="H"/><path d="M257.658 295.824s9.233-3.651 16.517 9.085c7.483 13.065-1.932 21.654-9.382 16.517 0 0-5.863 12.289-17.574 9.349s-13.594-12.306-13.594-12.306-10.373.727-10.671-7.036 7.334-14.618 7.334-14.618.463-19.309 13.049-19.144 14.321 18.153 14.321 18.153z" class="J"/><g class="B"><path d="M249.037 364.24l-2.577-57.465-2.692 57.465h5.269z"/><path d="M247.218 328.38l8.094-16.121-9.415 13.594 1.321 2.527z"/></g><path d="M504.163 261.021s-27.931 62.04 17.674 62.09 16.121-64.171 16.121-64.171 10.555-4.641-1.651-39.279-17.674-34.687-22.762-34.687c-6.425 0-12.421 14.982-8.06 37.991 0 .049-16.006 28.74-1.322 38.056z" class="K"/><g class="B"><path d="M528.324 363.945l-4.295-93.506-4.493 93.506h8.788z"/><path d="M525.782 309.652l-16.551-19.391 12.967 21.935 3.584-2.544z"/></g><path d="M70.808 295.824s-9.217-3.651-16.518 9.085c-7.483 13.065 1.933 21.654 9.382 16.517 0 0 5.864 12.289 17.558 9.349s13.594-12.306 13.594-12.306 10.389.727 10.67-7.036-7.334-14.618-7.334-14.618-.462-19.309-13.032-19.144-14.321 18.153-14.321 18.153z" class="J"/><g class="B"><path d="M79.446 364.24l2.56-57.465 2.709 57.465h-5.269z"/><path d="M81.244 328.38l-8.077-16.121 9.415 13.594-1.338 2.527z"/></g><path d="M577.234 270.75s-12.603-4.956-22.58 12.421c-10.224 17.839 2.643 29.583 12.818 22.563 0 0 8.011 16.782 24 12.768s18.566-16.798 18.566-16.798 14.188.974 14.585-9.614-10.01-19.986-10.01-19.986-.628-26.428-17.823-26.147-19.556 24.793-19.556 24.793z" class="J"/><g class="B"><path d="M589.027 364.223l3.518-78.491 3.667 78.491h-7.185z"/><path d="M591.502 315.231l-11.066-22.018 12.867 18.583-1.801 3.435z"/></g><path d="M184.279 241.894s33.035 73.239-20.862 73.288-19.012-75.733-19.012-75.733-12.471-5.467 1.933-46.365 20.878-40.897 26.874-40.897c7.581 0 14.667 17.673 9.514 44.845 0 0 18.979 33.877 1.553 44.862z" class="K"/><g class="B"><path d="M158.691 363.777l5.071-110.37 5.319 110.37h-10.39z"/><path d="M161.715 299.688l19.524-22.877-15.312 25.883-4.212-3.006z"/></g><path d="M264.908 255.84s-30.871 69.65 19.528 69.769 17.82-72.081 17.82-72.081 11.658-5.203-1.825-44.094-19.626-38.891-25.16-38.891c-7.105 0-13.739 16.804-8.911 42.659 0 0-17.761 32.193-1.452 42.638z" class="K"/><g class="B"><path d="M282.978 364.272l-3.98-86.965-4.196 86.965h8.176z"/><path d="M280.62 313.762l-15.395-18.021 12.074 20.4 3.321-2.379z"/><path d="M275.234 327.106l5.071-110.371 5.319 110.371h-10.39z"/><path d="M279.07 269.341l19.524-22.877-15.312 25.883-4.212-3.006z"/></g><path d="M417.698 293.28s19.095 42.648-12.223 42.615-10.967-44.085-10.967-44.085-7.252-3.205 1.189-26.973 12.19-23.753 15.692-23.753c4.41 0 8.506 10.307 5.467 26.098-.033 0 11.001 19.739.842 26.098z" class="K"/><g class="B"><path d="M402.666 364.157l3.089-64.204 2.956 64.221-6.045-.017z"/><path d="M404.502 326.876l11.397-13.28-8.952 15.031-2.445-1.751z"/></g><path d="M310.977 279.653s-11.331-4.476-20.317 11.182c-9.2 16.072 2.379 26.627 11.562 20.317 0 0 7.219 15.114 21.606 11.562s16.699-15.113 16.699-15.113 12.768.892 13.131-8.655-9.018-17.988-9.018-17.988-.578-23.752-16.039-23.554-17.624 22.249-17.624 22.249z" class="J"/><g class="B"><path d="M321.597 363.827l3.172-70.679 3.32 70.662-6.492.017z"/><path d="M325.354 322.285l-10.334-20.582 12.367 17.396-2.033 3.186z"/></g><path d="M412.623 250.252s15.362-6.079 27.519 15.146c12.471 21.754-3.205 36.058-15.626 27.519 0 0-9.762 20.449-29.253 15.559s-22.645-20.498-22.645-20.498-17.294 1.206-17.773-11.711 12.206-24.364 12.206-24.364.777-32.159 21.721-31.895 23.851 30.244 23.851 30.244z" class="J"/><g class="B"><path d="M398.252 364.223l-4.294-95.719-4.477 95.703 8.771.016z"/><path d="M395.228 304.479l13.479-26.842-15.692 22.646 2.213 4.196z"/></g><path d="M3.722 365.306s14.401 8.503 56.747 11.754 117.84-.128 158.87 8.391 96.813 18.624 184.52 18.304c83.912-.304 145.22-25.622 170.9-29.721s67.414-2.755 76.52-8.728H3.722z" class="L"/><path d="M0 364.686l81.871-.298 81.871-.111 163.758-.211 163.758.211 81.871.099 81.871.31-81.871.31-81.871.099-163.758.211-163.758-.211-81.871-.111L0 364.686z" class="C"/><g class="D"><use xlink:href="#B"/><path d="M199.53 297.125l-.601 2.073 5.298 4.087c.191.227-.122 1.325-.122 1.325h5.176v-7.485c-.768.432-1.58.78-2.423 1.036-.74.131-7.328-1.036-7.328-1.036z"/></g><g class="F G"><use xlink:href="#B" class="F"/><path d="M199.531 297.124l-.601 2.073 5.298 4.087c.192.227-.122 1.325-.122 1.325h5.176v-7.485a12.1 12.1 0 0 1-2.422 1.036c-.741.131-7.329-1.036-7.329-1.036z" class="F"/></g><path d="M294.425 378.364c.549 20.042 8.496 44.546 26.221 44.546 1.742 0 25.462.453 27.013-.061 14.282-4.741 22.743-30.787 21.14-53.748-1.255-17.881-6.972-37.914-21.872-40.319-.994-.157-25.95 0-27.013 0-17.908 0-26.09 28.059-25.489 49.582z" class="C"/><path d="M322.863 378.363c.558 20.042 8.505 44.546 26.22 44.546s25.828-28.355 24.042-53.809c-1.333-19.074-7.485-40.319-24.791-40.319-17.881 0-26.064 28.059-25.471 49.582z" class="B"/><path d="M330.24 377.754c.453 15.406 6.379 34.307 19.476 34.307s19.022-21.837 17.654-41.435c-1.028-14.692-5.62-31.048-18.412-31.048-13.219.027-19.214 21.62-18.718 38.176z" class="L"/><g class="C"><path d="M353.15 342.898c-.27 6.265-1.211 26.211-2.57 26.211-1.15 0-4.505-18.831-5.69-25.636a9.96 9.96 0 0 1 4.627-1.142 11.61 11.61 0 0 1 3.633.567zm-5.029 27.432c-.723.54-7.137-8.452-11.799-15.197.98-2.819 2.397-5.465 4.2-7.842 3.024 7.711 8.584 22.307 7.599 23.039z"/><use xlink:href="#C"/><path d="M346.299 375.461c.061.942-6.919 2.266-13.254 3.277l-.052-1.107c-.061-2.004 0-4.078.113-6.187 6.309 1.307 13.08 2.963 13.193 4.017zm-11.326 16.331a62.13 62.13 0 0 1-1.603-8.523c6.1-2.823 13.176-5.864 13.707-4.888s-6.788 8.287-12.104 13.411zm7.546 14.334a23.93 23.93 0 0 1-5.612-8.592c3.904-6.666 10.587-17.716 11.624-17.01s-4.313 19.737-6.012 25.602zm13.672 1.254a9.7 9.7 0 0 1-5.821 1.952c-.81.005-1.617-.086-2.405-.27.209-5.228 1.168-26.935 2.614-26.935 1.107-.017 4.374 18.152 5.612 25.253zm7.536-12.668a32.75 32.75 0 0 1-3.547 8.226c-3.032-7.764-7.912-20.696-6.971-21.393.663-.497 6.083 6.875 10.518 13.167zm2.109-11.441a64.25 64.25 0 0 1-.976 6.823c-4.967-4.688-10.074-9.811-9.708-10.718.279-.749 5.403 1.438 10.684 3.895zm.245-10.101v6.344c-5.228-1.107-10.169-2.387-10.23-3.302s4.95-2.005 10.23-3.042z"/><use xlink:href="#D"/><use xlink:href="#E"/><path d="M93.788 378.364c.549 20.042 8.496 44.546 26.22 44.546 1.743 0 25.462.453 27.013-.061 14.282-4.741 22.743-30.787 21.14-53.748-1.255-17.881-6.971-37.914-21.872-40.319-.993-.157-25.95 0-27.013 0-17.907 0-26.081 28.059-25.488 49.582z"/></g><path d="M122.232 378.363c.549 20.042 8.496 44.546 26.211 44.546s25.828-28.355 24.051-53.809c-1.342-19.074-7.494-40.319-24.791-40.319-17.89 0-26.072 28.059-25.471 49.582z" class="B"/><path d="M129.602 377.754c.453 15.406 6.379 34.307 19.476 34.307s19.022-21.837 17.654-41.435c-1.028-14.692-5.62-31.048-18.412-31.048-13.219.027-19.206 21.62-18.718 38.176z" class="L"/><g class="C"><path d="M152.512 342.898c-.27 6.265-1.211 26.211-2.614 26.211-1.151 0-4.505-18.83-5.69-25.636a9.97 9.97 0 0 1 4.627-1.142 11.59 11.59 0 0 1 3.677.567zm-5.03 27.432c-.724.54-7.137-8.452-11.799-15.197a28.63 28.63 0 0 1 4.2-7.842c3.024 7.711 8.61 22.307 7.599 23.039z"/><use xlink:href="#C" x="-200.639"/><path d="M145.627 375.461c.061.942-6.919 2.266-13.254 3.277 0-.375 0-.732-.043-1.107-.07-2.004 0-4.078.104-6.187 6.344 1.307 13.115 2.963 13.193 4.017zm-11.283 16.331a61.98 61.98 0 0 1-1.604-8.523c6.1-2.823 13.176-5.864 13.707-4.888s-6.797 8.287-12.103 13.411zm7.538 14.334c-2.46-2.428-4.365-5.359-5.585-8.592 3.904-6.666 10.587-17.716 11.624-17.01s-4.339 19.737-6.039 25.602zm13.672 1.254c-1.678 1.264-3.72 1.949-5.821 1.952a10.3 10.3 0 0 1-2.405-.27c.209-5.228 1.168-26.935 2.614-26.935 1.107-.017 4.375 18.152 5.612 25.253zm7.546-12.668a32.78 32.78 0 0 1-3.546 8.226c-3.033-7.764-7.913-20.696-6.972-21.393.654-.497 6.074 6.875 10.518 13.167zm2.1-11.441a64.25 64.25 0 0 1-.976 6.823c-4.967-4.688-10.064-9.811-9.707-10.718.279-.749 5.402 1.438 10.683 3.895zm.244-10.101v6.344c-5.228-1.107-10.169-2.387-10.23-3.302s4.949-2.005 10.23-3.042z"/><use xlink:href="#D" x="-200.637"/><path d="M162.584 355.638c-3.774 6.518-9.072 15.284-9.995 14.648s3.233-17.018 5.071-23.876a25.47 25.47 0 0 1 4.924 9.228zm314.366 22.726c.549 20.042 8.496 44.546 26.22 44.546 1.743 0 25.462.453 27.013-.061 14.282-4.741 22.744-30.787 21.14-53.748-1.255-17.881-6.971-37.914-21.872-40.319-.993-.157-25.95 0-27.013 0-17.907 0-26.081 28.059-25.488 49.582z"/></g><path d="M505.389 378.363c.549 20.042 8.496 44.546 26.212 44.546s25.828-28.355 24.05-53.809c-1.342-19.074-7.494-40.319-24.791-40.319-17.89 0-26.072 28.059-25.471 49.582z" class="B"/><path d="M512.737 377.754c.453 15.406 6.379 34.307 19.476 34.307s19.022-21.837 17.654-41.435c-1.028-14.692-5.62-31.048-18.412-31.048-13.193.027-19.18 21.62-18.718 38.176z" class="L"/><g class="C"><path d="M535.669 342.898c-.27 6.265-1.211 26.211-2.614 26.211-1.15 0-4.505-18.83-5.69-25.636a9.98 9.98 0 0 1 4.636-1.142 11.59 11.59 0 0 1 3.668.567zm-5.025 27.432c-.723.54-7.136-8.452-11.798-15.197a28.85 28.85 0 0 1 4.2-7.842c3.024 7.711 8.583 22.307 7.598 23.039zm-1.214 2.316c-.322.819-7.224-2.335-13.437-5.368.313-2.513.781-5.004 1.403-7.459 5.69 5.272 12.435 11.834 12.034 12.827zm-.64 2.815c.061.942-6.919 2.266-13.254 3.277 0-.375 0-.732-.044-1.107-.069-2.004 0-4.078.105-6.187 6.344 1.307 13.114 2.963 13.193 4.017zm-11.289 16.331a62.13 62.13 0 0 1-1.603-8.523c6.1-2.823 13.175-5.864 13.707-4.888s-6.797 8.287-12.104 13.411zm7.54 14.334a23.94 23.94 0 0 1-5.611-8.592c3.904-6.666 10.587-17.716 11.624-17.01s-4.313 19.737-6.013 25.602zm13.67 1.254c-1.678 1.264-3.72 1.949-5.821 1.952a10.31 10.31 0 0 1-2.405-.27c.209-5.228 1.168-26.935 2.615-26.935 1.106-.017 4.374 18.152 5.611 25.253zm7.549-12.668a32.75 32.75 0 0 1-3.547 8.226c-3.032-7.764-7.912-20.696-6.971-21.393.662-.497 6.074 6.875 10.518 13.167zm2.097-11.441a61.74 61.74 0 0 1-.976 6.823c-4.967-4.688-10.064-9.811-9.707-10.718.279-.749 5.403 1.438 10.683 3.895zm.245-10.101v6.344c-5.229-1.107-10.169-2.387-10.23-3.302s4.949-2.005 10.23-3.042z"/><use xlink:href="#D" x="182.523"/><use xlink:href="#E" x="182.523"/></g><path d="M373.366 408.174h119.477s10.918-17.777 11.537-20.591-2.083-59.42 27.161-59.42c25.48 0 24.347 56.832 24.347 56.832l3.119-4.775.706-8.305-1.987-4.914s3.739-34.856 1.987-39.657-17.314-24.913-18.369-25.968-18.247-3.982-19.414-5.028-49.278-40.711-70.653-45.391-68.125-8.417-98.127-8.417-98.633 8.104-104.245 9.977-57.084 50.219-57.084 50.219l-62.235 8.713c-7.337 1.656-35.327 20.243-36.494 22.578s-4.801 28.425-4.801 28.425-2.806 6.44-2.919 7.956 3.39 26.324 3.86 27.605 5.612 7.137 6.779 7.608 195.993 3.041 198.381 2.614 13.62-3.738 15.493-4.993 5.481-74.461 39.03-74.461c29.131 0 26.795 55.883 24.451 79.393z" class="D"/><path d="M210.363 407.433l-114.352-1.83c-1.168-.471-6.318-6.318-6.779-7.599s-3.982-26.089-3.852-27.605 2.911-7.965 2.911-7.965 3.625-26.089 4.793-28.424 29.13-20.914 36.502-22.57 62.235-8.713 62.235-8.713-49.669 11.11-52.284 13.332-21.784 23.179-24.015 26.29-2.562 26.664-3.268 28.608-5.385 14.125-5.856 16.225 1.639 10.535 2.336 11.223 97.116 8.662 101.63 9.028zm162.993.74c2.144-21.341 4.253-69.354-17.175-78.025 10.945 1.987 26.229 19.929 26.856 66.801l109.796 11.224H373.356z" class="F G"/><path opacity=".36" d="M490.027 377.875a133.03 133.03 0 0 1 7.232-33.217 76.27 76.27 0 0 1 3.364-7.843 56.44 56.44 0 0 1 4.357-7.38c1.617-2.379 3.503-4.563 5.62-6.51a31.62 31.62 0 0 1 3.364-2.71 26.47 26.47 0 0 1 3.799-2.091c2.644-1.213 5.502-1.888 8.409-1.987 2.906-.184 5.818.256 8.54 1.29 5.472 2.117 9.637 6.57 12.583 11.424 2.89 4.927 5.097 10.224 6.561 15.746a99.31 99.31 0 0 1 3.068 16.739c-.714-5.624-1.906-11.178-3.564-16.6-1.547-5.432-3.818-10.632-6.754-15.458-3.006-4.679-7.032-9.036-12.26-10.971a19.31 19.31 0 0 0-8.139-1.185c-2.78.113-5.51.774-8.034 1.943a25.99 25.99 0 0 0-3.651 1.987 32.09 32.09 0 0 0-3.268 2.614c-2.069 1.889-3.914 4.008-5.499 6.318a70.27 70.27 0 0 0-7.746 14.97c-2.015 5.295-3.663 10.722-4.932 16.243a148.56 148.56 0 0 0-3.05 16.678zm-181.197 0c.959-11.079 3.301-21.996 6.971-32.494 1.833-5.272 4.285-10.309 7.302-15.005a45.82 45.82 0 0 1 5.281-6.544 30.97 30.97 0 0 1 6.745-5.063 25.48 25.48 0 0 1 8.069-2.536 24.9 24.9 0 0 1 8.426.488c5.551 1.307 10.326 4.871 13.82 9.219a53.57 53.57 0 0 1 8.104 14.561 83.68 83.68 0 0 1 4.261 16.069c-1.051-5.437-2.641-10.756-4.749-15.877a52.98 52.98 0 0 0-8.243-14.238c-3.486-4.166-8.095-7.59-13.419-8.801-2.65-.596-5.381-.738-8.078-.419-2.684.395-5.286 1.225-7.703 2.458a30.51 30.51 0 0 0-6.527 4.853c-1.921 1.956-3.656 4.086-5.185 6.361a74.25 74.25 0 0 0-7.346 14.753 126.91 126.91 0 0 0-4.757 15.877c-1.3 5.385-2.292 10.84-2.972 16.338zm66.173-41.322l22.874-6.623 42.698-4.069 42.698-3.79h-.052l13.942-4.828 14.012-4.749-13.942 5.028-13.942 4.958h-.053l-42.698 4.043-42.698 3.782-22.839 6.248zm-177.092-33.791l-23.179 9.89-23.214 9.821.113-.096-9.237 17.349-.226-.375 67.097.584h-.157l26.665-15.685 33.234-9.89 33.261-9.777-33.086 10.16-33.192 10.013h.061l-26.56 15.772-.078.043h-.087l-67.097-.705h-.427l.2-.366 9.324-17.315v-.07h.07l23.24-9.716 23.275-9.637z" class="H"/><g opacity=".3" class="G"><path opacity=".3" d="M196.186 302.736l-46.776 11.119-5.838 1.429-2.893.758-.671.227c-.112.029-.22.07-.323.122l-.252.217a10.26 10.26 0 0 0-1.003 1.029c-2.614 2.997-4.993 6.23-7.441 9.393l-14.387 19.267 13.942-19.589c2.388-3.224 4.776-6.431 7.407-9.498a8.7 8.7 0 0 1 1.089-1.124l.323-.262c.12-.06.245-.11.374-.148l.75-.261 2.91-.785 5.839-1.464 23.431-5.376 23.519-5.054zm150.923 1.873l-14.23 4.488-14.256 4.409-28.459 8.949-14.195 4.575a44.24 44.24 0 0 0-6.745 3.067l-6.657 3.372-13.298 6.754-13.35 6.657 13.193-6.971 13.254-6.867 6.623-3.424a43.25 43.25 0 0 1 6.788-3.146c4.705-1.647 9.437-3.172 14.177-4.688l28.53-8.714 14.291-4.287 14.334-4.174zm35.93 88.683l13.733-.296 13.742-.192 27.466-.418 27.475-.261 13.733-.209 3.433-.061 1.743-.061c.27 0 .593 0 .819-.061s.436-.297.645-.471c1.516-1.699 2.867-3.564 4.226-5.403l-4.104 5.516c-.209.183-.357.488-.689.541a6.69 6.69 0 0 1-.871.087l-1.743.104-3.433.148-13.733.34-27.475.488-27.475.183-13.733.079-13.759-.053zm96.305-92.02l4.235 20.914v.095l-2.745 16.557-2.814 16.556-5.935 33.113 5.299-33.217 2.797-16.557 2.875-16.556v.087l-3.712-20.992zm-75.794 1.385l-5.324 27.519v-.053l-.462 29.985-.323 15.031-.444 14.988v-14.996l.131-14.997.47-29.985v-.061l5.952-27.431zm102.729-8.26l2.771 8.966 2.509 9.045v.079.07l-1.49 6.613-1.629 6.579 1.159-6.683 1.307-6.64v.157l-2.449-9.054-2.178-9.132z"/><path opacity=".3" d="M380.537 356.569l14.186-1.081 14.187-.967 28.381-1.934 28.39-1.7 14.203-.854 14.204-.731-14.186 1.08-14.186.967-28.382 1.935-28.39 1.708-14.195.845-14.212.732zm80.909-51.138l.767 3.485-.192-.148 6.657-.723 6.667-.593-.288.393-.671-3.207.305.218-7.389.348 7.345-.915h.244l.053.253.74 3.189.087.358h-.374l-6.666.583-6.684.445h-.166v-.157l-.435-3.529zm-360.879 47.506c-.871 4.61-1.969 9.158-3.041 13.707l-.436 1.743-.105.418-.052.209c0 .105 0 0-.087 0 0 .253.043.584.061.872l.27 3.555c.157 2.379.296 4.758.349 7.102-.349-2.318-.61-4.61-.871-6.893-.131-1.133-.218-2.292-.322-3.433l-.078-.872a1.08 1.08 0 0 1 0-.453l.052-.209.096-.436.401-1.742c1.203-4.558 2.362-9.098 3.764-13.568zm174.541 0l2.614 7.032 2.37 7.119v.061.044l-.096 5.342-.235 5.341-.244-5.341-.087-5.342v.105l-2.309-7.137-2.013-7.224zM85.432 371.446l13.219 13.141h-.07l47.299 1.542 23.632.776 23.65-.053 94.607.227 19.214-4.653-19.171 4.888-94.615.227-23.65-.044-23.641-.871-47.264-1.856h-.052l-13.158-13.324z"/></g><path d="M415.636 300.873c1.56 1.594 63.168-2.031 64.57-2.188s24.957-4.679 26.046-5.768-37.469-28.852-40.711-30.264-38.951-3.738-43.866-1.742c-3.843 1.551-7.834 38.123-6.039 39.962z" class="C"/><path d="M419.638 299.18c1.429 1.456 57.712-1.856 58.993-1.995s22.804-4.279 23.797-5.229-34.193-26.368-37.191-27.649-35.587-3.424-40.084-1.603c-3.503 1.377-7.154 34.795-5.515 36.476z" class="B"/><path d="M458.708 263.26l-39.003 23.981c.671-7.041 1.925-15.502 3.346-20.452l7.79-4.784c9.305-.09 18.608.329 27.867 1.255zm30.55 17.837l-27.753 17.07-16.226.784 37.165-22.856 6.814 5.002zm11.408 8.889l-6.814 4.191-5.028 1.063 10.457-6.422 1.385 1.168z" class="F H"/><path d="M462.578 263.714c1.098.175 13.838 33.052 13.594 33.697s2.518.113 2.283-.052-13.942-31.876-13.542-33.209c.21-.706-2.335-.436-2.335-.436zm-266.391 39.022l150.925 1.873c3.808 0 56.318-2.536 56.963-2.884s5.786-38.481 4.226-41.592c-.427-.871-70.966-4.496-79.619-4.496s-79.619 3.093-83.366 3.747-51.709 43.317-49.129 43.352z" class="C"/><path d="M200.718 300.898l141.819 1.743c3.572 0 54.383-2.379 54.984-2.71s4.035-34.054 2.562-36.974c-.4-.801-68.142-4.226-76.272-4.226s-74.818 2.902-78.339 3.486-47.177 38.655-44.754 38.681z" class="B"/><path d="M304.185 259.376l-68.239 41.966-29.313-.366 65.354-40.206 32.198-1.394zm44.031.34l-68.596 42.228 14.657.183 67.76-41.67-13.821-.741zm27.013 41.513l16.348-.871 6.57-4.044 1.063-9.846-23.981 14.761zm7.477-39.657l-66.313 40.781h3.233l66.078-40.633-2.998-.148zm-124.661-.122l-46.541 28.617-6.64 6.099 56.788-34.916-3.607.2z" class="F H"/><path d="M253.742 340.797c-2.039 2.03 1.56 14.657 4.679 15.598s24.486-2.03 26.822-2.658 26.359-7.799 28.39-9.977 3.895-20.121 1.742-21.367-38.219 8.104-42.114 9.202-17.802 7.486-19.519 9.202zm-162.41 6.457c.871 1.621 6.675 7.642 7.843 8.47s8.191 2.004 9.01 1.542 5.229-10.178 5.142-11.816-9.35-19.397-11.015-19.04-10.526 5.847-10.997 7.599-.88 11.502.017 13.245z" fill="#455a64"/><path d="M91.855 346.707c-.087 1.167 3.015 4.784 3.39 5.228a32.84 32.84 0 0 1-3.912-4.671c-.871-1.742-.479-11.511 0-13.254s9.359-7.258 10.988-7.615c-1.742.792-8.862 6.587-9.245 8.025s-1.124 11.041-1.22 12.287z" fill="#dbdbdb"/><path d="M116.603 346.296c2.056-.715 44.336-1.987 52.64-1.987s62.932 1.281 66.679 2.57-4.679 23.528-7.956 25.149-55.917 5.847-59.542 5.847-44.72-5.804-47.177-7.442-8.034-22.97-4.644-24.137z" class="C"/><path d="M234.135 360.569l-.523 1.351-116.487-2.109-.323-1.385 117.333 2.143z" class="D"/><path d="M122.215 396.923h110.083c2.335 0-9.586-7.128-11.477-7.25s-88.193 0-89.945 0-10.648 7.25-8.661 7.25z" class="C"/><path d="M94.336 392.226c1.185.201 13.411.436 15.441 0s6.71-11.119 6.396-12.713-9.402-6.972-10.57-7.372-9.411-.819-10.291 0-2.074 19.911-.976 20.085zm158.306-14.351c-1.455 1.891 8.583 13.298 12.4 14.701s27.231 1.446 28.102 1.211.872-11.973.427-13.768-4.836-8.339-5.803-8.923-21.959 1.202-24.8 1.943-9.664 3.982-10.326 4.836z" fill="#455a64"/><g class="D"><path d="M424.98 297.247l-.61-2.074s7.685-8.235 9.881-9.246 15.685 1.525 16.452 2.719.444 6.387.261 7.302-12.199 2.972-14.229 3.059-11.755-1.76-11.755-1.76z"/><path d="M424.369 295.175l.61 2.073-5.298 4.087c-.183.227.122 1.325.122 1.325h-5.229v-7.485a12.49 12.49 0 0 0 2.423 1.037c.758.13 7.372-1.037 7.372-1.037z"/></g><path d="M509.87 223.148l-.263-6.553s-1.755-1.738-1.755-2.866 2.018-7.579 2.899-7.884 5.621 1.942 5.705 3.391-2.458 6.782-2.899 7.172l.704 6.96-4.391-.22zm-71.405-9.046l2.255-6.485c.96-.686 1.851-1.464 2.662-2.323.618-.848-2.832-6.96-3.341-6.96-1.671.624-3.238 1.498-4.645 2.594-.509.611 2.187 5.595 2.187 5.595l-3.349 5.595 4.231 1.984z" class="I"/><path d="M451.581 213.008c-3.112.306-18.057 16.285-18.057 16.285l6.451-17.921-5.086-1.737s-12.598 20.065-9.834 27.432 27.441-9.52 27.441-9.52l-.915-14.539z" class="M"/><path d="M499.409 403.706l3.485-4.552-5.901-5.697-5.366-5.171-5.044 4.713 6.782 5.671 6.044 5.036z" class="I"/><path d="M503.097 397.755c-.517-.364-4.832 6.104-4.832 6.104s.958 6.782-.992 11.097 1.84 3.984 4.993-.136l7.783-10.173c2.238-2.958-1.653-3.052-6.952-6.892z" class="E"/><path d="M498.334 405.113s-2.89-.932-3.229.628c-.382 1.797 3.229-.628 3.229-.628zm0 0s-2.916 2.171-2.144 3.154c1.17 1.475 2.144-3.154 2.144-3.154z" stroke="#ffc727" class="N O"/><path opacity=".2" d="M493.365 398.67l3.628-5.213-5.366-5.171-5.044 4.713 6.782 5.671z" class="G"/><path d="M464.541 410.921h5.74l.941-7.986.847-7.324-6.807-1.111-.381 8.698-.34 7.723z" class="I"/><path d="M471.508 410.556c0-.636-7.782-.135-7.782-.135s-4.781 4.857-9.418 5.934-2.052 3.891 3.153 3.891h12.818c3.688 0 1.382-3.137 1.229-9.69z" class="E"/><path d="M462.771 411.235s-1.018-2.866-2.459-2.188c-1.695.789 2.459 2.188 2.459 2.188zm0 0s-3.502-1.001-3.807.203c-.466 1.831 3.807-.203 3.807-.203z" stroke="#ffc727" class="N O"/><path opacity=".2" d="M464.881 403.375l6.341-.279.847-7.41-6.807-1.144-.381 8.833z" class="G"/><path d="M450.23 272.959s-16.955 40.056-19.608 57.646 57.527 64.691 57.527 64.691l6.155-6.545s-44.778-46.032-44.778-53.949 17.464-44.083 17.464-44.083 1.687-14.589-16.76-17.76z" class="D"/><path d="M462.497 373.366c6.146 5.663 12.097 10.774 16.717 14.64l8.935 7.274 6.155-6.545s-6.155-6.315-13.886-14.683c-6.087-6.578-13.165-14.411-19.006-21.43-6.782-8.139-11.869-15.166-11.869-17.803 0-4.179 4.858-16.2 9.444-26.644 4.12-9.325 8.02-17.438 8.02-17.438a14.98 14.98 0 0 0-.483-4.951c-1.179-4.535-4.9-10.834-16.285-12.792 0 0-16.955 40.056-19.6 57.646-1.475 9.554 15.853 27.992 31.858 42.726z" class="E"/><path opacity=".2" d="M461.414 352.622l1.085 20.744c6.146 5.663 12.098 10.775 16.718 14.64 1.062-4.57 1.467-9.269 1.203-13.953-6.086-6.579-13.165-14.412-19.006-21.431zm-2.442-44.481c4.12-9.325 8.02-17.438 8.02-17.438a14.97 14.97 0 0 0-.483-4.95c-.585-.397-1.237-.684-1.925-.848 0 0-5.01 7.909-5.612 23.236z" class="G"/><path d="M480.769 181.032s-5.146-6.417-13.564-4.985-6.96 17.006-6.96 17.006c-1.573 1.346-2.743 3.099-3.384 5.067s-.724 4.076-.244 6.089c1.644 7.062 20.845 11.148 28.187 6.239s1.695-20.481-1.874-22.685-2.161-6.731-2.161-6.731z" class="E"/><use xlink:href="#F" class="D"/><g class="E"><use xlink:href="#F"/><path d="M480.351 258.057v4.103l-27.976-2.144v-4.849l27.976 2.89z"/></g><path d="M470.971 256.362l1.389.071-.361 7.069-1.388-.07.36-7.07z" class="D"/><path d="M458.84 256.147l6.113.548-.415 4.635-6.113-.547.415-4.636z" fill="#d8d8d8"/><path d="M453.875 254.469l1.388.071-.36 7.069-1.389-.071.361-7.069z" class="D"/><path d="M470.971 256.362l1.389.071-.361 7.069-1.388-.07.36-7.07zm-17.096-1.893l1.388.071-.36 7.069-1.389-.071.361-7.069z" fill="#d8d8d8"/><use xlink:href="#G" class="D"/><use xlink:href="#G" class="H"/><path d="M467.635 219.332c6.9-.847 8.969-3.831 8.969-3.831-4.375-4.129-.738-11.284-.738-11.284l-8.299 1.552c.195 1.157.302 2.327.322 3.501.068 5.035-2.213 5.086-2.213 5.086-1.492 2.721 1.959 4.976 1.959 4.976z" class="I"/><path opacity=".2" d="M467.532 205.769c.195 1.157.303 2.328.322 3.501 4.002-.932 7.978-5.086 7.978-5.086l-8.3 1.585z" class="G"/><path d="M474.935 182.787c-7.036-1.696-10.172 1.568-12.419 8.689-2.789 8.901-2.306 15.81 6.943 15.963 12.589.203 17.15-21.88 5.476-24.652z" class="I"/><path d="M467.151 192.205c-.812.917-1.731 1.734-2.738 2.433.139.343.372.641.672.858a1.97 1.97 0 0 0 1.024.371l1.042-3.662z" fill="#da9e7f"/><g class="E"><path d="M471.594 192.603c-.153.577 0 1.119.415 1.221s.848-.28.966-.848 0-1.119-.415-1.22-.822.271-.966.847z"/><path d="M472.724 191.816l-1.128-.848s.339 1.237 1.128.848zm-8.242-1.196c-.153.568.042 1.119.424 1.22s.848-.288.966-.847-.042-1.119-.424-1.221-.813.271-.966.848z"/><path d="M465.603 189.823l-1.119-.848s.347 1.246 1.119.848z"/></g><path d="M472.816 187.763a3.77 3.77 0 0 1 1.606.569 3.76 3.76 0 0 1 1.191 1.22m-7.842-3.281c-.453-.234-.952-.364-1.462-.378a3.38 3.38 0 0 0-1.48.293" stroke="#2e353a" stroke-width=".417" stroke-linecap="round" class="N"/><path d="M466.45 198.834a18.79 18.79 0 0 1 .246 2.637l.458.067c2.094.28 3.162-.288 3.704-.991.258-.354.429-.764.501-1.196.034-.244.034-.493 0-.737a9.96 9.96 0 0 1-4.239.305l-.67-.085z" class="E"/><path d="M467.171 198.919l.085.78c1.975.254 3.39.169 4.103-.348.034-.244.034-.493 0-.737-1.359.398-2.786.502-4.188.305z" class="H"/><path d="M467.154 201.53c2.094.28 3.162-.288 3.704-.992a6.79 6.79 0 0 0-2.373.144c-.523.134-.989.431-1.331.848z" fill="#da9e7f"/><path d="M479.811 196.444s-1.916-6.553-.365-10.894c0 0-12.58-8.994-16.624 4.985 0 0 1.611-12.886 13.767-10.3s7.91 20.261.424 24.05c0 .017 3.976-3.73 2.798-7.841z" class="E"/><path d="M478.308 197.673a3.17 3.17 0 0 1 3.984-2.026c2.128.746 2.103 5.467-3.569 5.264-.813-.034-1.076-.899-.415-3.238zm-26.16 22.024c10.512 5.197 26.619 3.985 35.605 2.73l1.746-5.154c-3.799-1.213-7.68-2.151-11.614-2.806-4.151-.737-8.35-1.179-12.563-1.323-5.443 0-11.699.568-11.699.568s-.916.212-1.475 5.985z" class="I"/><path d="M483.599 214.441s-7.536 9.63-7.765 20.066 6.731 58.578 6.731 58.578l8.393-2.373s-6.342-37.046 0-72.829l-7.359-3.442zm-23.355-1.042s-3.069 9.978-2.662 17.15-7.35 42.479-7.35 42.479l-2.255 5.426 2.229-21.897s-1.347-32.138 1.374-43.158h8.664z" class="M"/><path d="M474.935 182.786s-2.603 8.859 5.323 12.869c9.58 4.849 8.664 15.327-.678 16.658 0 0 9.435-.95 11.266-7.113s-3.39-15.649-3.39-15.649 2.865-5.214-4.875-9.325c-4.34-2.289-7.646 2.56-7.646 2.56zm-.695 214.884l-12.004-1.764 1 4.799 9.91 1.331 1.094-4.366zm20.065-11.148l-8.053 8.757 4.026 2.306 6.214-6.595-2.187-4.468z" class="E"/><path d="M490.956 217.875c3.891 1.695 17.802 26.534 17.802 26.534l.271-23.483 6.282-.847s3.823 33.307-4.366 35.214-23.211-21.837-23.211-21.837l3.222-15.581z" class="M"/><defs ><path id="B" d="M198.931 299.197l.601-2.074s-7.677-8.234-9.882-9.245-15.685 1.525-16.443 2.719-.444 6.387-.261 7.302 12.199 2.971 14.221 3.058 11.764-1.76 11.764-1.76z"/><path id="C" d="M346.912 372.646c-.331.819-7.224-2.335-13.437-5.368.312-2.513.781-5.004 1.403-7.459 5.69 5.272 12.435 11.834 12.034 12.827z"/><path id="D" d="M365.811 369.152c-5.098 2.423-10.204 4.575-10.649 3.73s4.845-6.675 9.525-11.564a71.1 71.1 0 0 1 1.124 7.834z"/><path id="E" d="M363.22 355.638c-3.773 6.518-9.071 15.284-9.995 14.648s3.233-17.018 5.072-23.876c2.262 2.702 3.938 5.845 4.923 9.228z"/><path id="F" d="M464.422 284.947l-1.025 56.392v57.713h9.604c22.94-109.357 7.215-136.773 7.215-136.773h-.06c0-.042 0-.093-.051-.127-3.687-8.189-27.848-2.153-27.848-2.153-1.737 6.782-2.806 20.574-2.806 20.574l14.971 4.374z"/><path id="G" d="M452.257 255.658l27.976 2.416c.661-10.401 1.322-17.107 7.485-35.604l1.746-5.155c-3.799-1.212-7.68-2.15-11.614-2.806a89.16 89.16 0 0 0-12.563-1.322c-5.442 0-11.699.568-11.699.568s-.89.212-1.449 5.985c-.5 5.375-1.001 16.209.118 35.918z"/></defs></svg>